<?xml version="1.0" encoding="utf-8"?>
<!-- Generator: Adobe Illustrator 27.8.0, SVG Export Plug-In . SVG Version: 6.00 Build 0)  -->
<svg version="1.1" id="Layer_1" xmlns="http://www.w3.org/2000/svg" xmlns:xlink="http://www.w3.org/1999/xlink" x="0px" y="0px"
	 viewBox="0 0 100 100" style="enable-background:new 0 0 100 100;" xml:space="preserve">
<style type="text/css">
	.st0{fill:#FFFFFF;}
</style>
<rect x="0" y="0" width="100.2" height="100"/>
<path class="st0" d="M27.6,37.2h-3.7V44c-1.2,0-2.5,0-3.3,0c-3.8,0-7,3.1-7,7c0,3.8,3.1,7,7,7c3.8,0,7-3.1,7-7c0-1.9,0-7,0-7
	L27.6,37.2z M23.9,50.9c0,1.8-1.5,3.3-3.3,3.3c-1.8,0-3.3-1.5-3.3-3.3c0-1.8,1.5-3.3,3.3-3.3l3.3,0L23.9,50.9z M57.7,50.9
	c0-3.8,3.1-7,7-7c3.8,0,7,3.1,7,7c0,3.8-3.1,7-7,7C60.8,57.9,57.7,54.8,57.7,50.9L57.7,50.9z M64.6,54.3c1.8,0,3.3-1.5,3.3-3.3
	c0-1.8-1.5-3.3-3.3-3.3c-1.8,0-3.3,1.5-3.3,3.3C61.3,52.8,62.8,54.3,64.6,54.3L64.6,54.3z M83.3,50.9c0-1.8-1.5-3.3-3.3-3.3
	c-1.8,0-3.3,1.5-3.3,3.3c0,0.9,0,6.7,0,6.7c-1.9,0-3.7,0-3.7,0s0-4.8,0-6.7c0-3.8,3.1-7,7-7c3.8,0,7,3.1,7,7c0,2,0,6.7,0,6.7
	s-1.8,0-3.7,0C83.3,57.6,83.3,51.9,83.3,50.9L83.3,50.9z M54.5,50.4c3.4,1.8,1.7,5,1.3,5.5c-2.1,2.6-5.8,1.9-5.8,1.9
	c-2.4-0.4-3.9-1.2-5.1-2.1l1.8-2.4c0.9,0.6,3.4,1.7,5.3,1.3c1.1-0.3,1.4-1.1,0.6-1.5c-0.9-0.5-3.9-0.9-5.6-2
	c-2.8-1.8-1.4-4.6-1.4-4.6c1.6-3,5.6-2.5,5.6-2.5c2.4,0.2,4,1,4.8,1.6L54.3,48c-1.7-0.7-3.6-1-4.7-0.7c-0.9,0.2-1,0.9-0.5,1.2
	C50,49.1,52.8,49.5,54.5,50.4L54.5,50.4z M32,60.3c0.2,0.1,1.9,1.3,3.5,1.3c4,0.1,4.2-4.1,4.2-5.1c-0.8,0.8-2.3,1.3-3.3,1.3
	c-3.8,0-6.9-3-6.9-6.9c0-1.9,0-6.8,0-6.8s1.8,0,3.7,0c0,0,0,6,0,6.8c0,1.8,1.5,3.3,3.3,3.3c1.8,0,3.3-1.5,3.3-3.3c0-0.7,0-6.8,0-6.8
	c1.9,0,3.7,0,3.7,0l0,6.8c0,6,0.3,12.2-5.6,13.6c-4.4,1.1-7.5-1.7-7.7-1.8L32,60.3z"/>
</svg>
